<svg width="520" height="516" viewBox="0 0 520 516" fill="none" xmlns="http://www.w3.org/2000/svg">
<path d="M159.883 215.733H93.4565V198.322H159.883V215.733Z" fill="#ECECEC"/>
<mask id="mask0_1201_511" style="mask-type:luminance" maskUnits="userSpaceOnUse" x="0" y="0" width="520" height="516">
<path d="M0 0.396348H520V515.604H0V0.396348Z" fill="white"/>
</mask>
<g mask="url(#mask0_1201_511)">
<path d="M131.795 234.073C131.788 234.065 131.781 233.959 131.774 233.756C131.769 233.523 131.762 233.23 131.752 232.863C131.741 232.044 131.724 230.901 131.702 229.437C131.676 226.431 131.638 222.109 131.589 216.662L131.795 216.866C116.627 216.895 92.5068 216.943 65.3721 216.996C65.5208 216.847 65.03 217.331 65.706 216.662V216.666V216.675V216.693V216.728V216.798V216.938V217.217V217.777V218.893C65.706 219.636 65.706 220.376 65.706 221.114C65.7049 222.591 65.7049 224.055 65.7039 225.509C65.7028 228.415 65.7008 231.273 65.6987 234.073L65.368 233.745C84.2835 233.804 100.834 233.856 112.706 233.893C118.619 233.933 123.364 233.964 126.678 233.987C128.29 234.006 129.553 234.02 130.456 234.03C130.863 234.039 131.189 234.046 131.444 234.051C131.67 234.058 131.788 234.065 131.795 234.073C131.802 234.08 131.698 234.087 131.487 234.094C131.242 234.099 130.93 234.107 130.54 234.115C129.653 234.125 128.415 234.139 126.833 234.158C123.536 234.18 118.818 234.212 112.937 234.251C101.008 234.289 84.376 234.34 65.368 234.4L65.0372 234.401L65.0362 234.073C65.0341 231.273 65.0331 228.415 65.031 225.509C65.031 224.055 65.03 222.591 65.03 221.114C65.03 220.376 65.03 219.636 65.0289 218.893V217.777V217.217V216.938V216.798V216.728V216.693V216.675V216.666V216.662C65.706 215.991 65.2192 216.475 65.3721 216.326C92.5068 216.379 116.627 216.427 131.795 216.458H132.003L132.001 216.662C131.952 222.161 131.913 226.524 131.887 229.558C131.866 231.003 131.849 232.13 131.836 232.939C131.828 233.29 131.821 233.572 131.816 233.796C131.808 233.986 131.802 234.08 131.795 234.073Z" fill="#E1E1E1"/>
<path d="M413.318 56.6055H346.891V39.1946H413.318V56.6055Z" fill="#ECECEC"/>
<path d="M385.446 74.3836C385.439 74.3764 385.433 74.2702 385.426 74.0673C385.42 73.8344 385.413 73.5407 385.404 73.1739C385.392 72.3547 385.376 71.212 385.354 69.7478C385.328 66.742 385.289 62.4205 385.24 56.9727L385.446 57.1767C370.279 57.2066 346.157 57.254 319.023 57.3076C319.172 57.1582 318.681 57.6424 319.357 56.9727V56.9768V56.9861V57.0036V57.0386V57.1087V57.2488V57.5281V58.0876V59.2046C319.357 59.9475 319.357 60.6873 319.356 61.4251C319.356 62.9017 319.356 64.3659 319.355 65.8198C319.353 68.7256 319.352 71.584 319.35 74.3836L319.019 74.0549C337.935 74.1147 354.486 74.1672 366.357 74.2043C372.271 74.2445 377.015 74.2764 380.329 74.2981C381.941 74.3166 383.204 74.331 384.108 74.3413C384.514 74.3496 384.84 74.3568 385.096 74.362C385.32 74.3692 385.439 74.3764 385.446 74.3836C385.454 74.3908 385.35 74.398 385.138 74.4052C384.893 74.4104 384.581 74.4176 384.191 74.4258C383.305 74.4361 382.066 74.4506 380.484 74.4691C377.188 74.4908 372.469 74.5227 366.588 74.5619C354.659 74.6 338.026 74.6515 319.019 74.7113L318.689 74.7123L318.688 74.3836C318.686 71.584 318.685 68.7256 318.682 65.8198C318.682 64.3659 318.681 62.9017 318.681 61.4251C318.68 60.6873 318.68 59.9475 318.68 59.2046V58.0876V57.5281V57.2488V57.1087V57.0386V57.0036V56.9861V56.9768V56.9727C319.357 56.3019 318.871 56.7872 319.023 56.6368C346.157 56.6903 370.279 56.7377 385.446 56.7687H385.653L385.652 56.9727C385.603 62.472 385.565 66.8348 385.539 69.8683C385.517 71.314 385.5 72.4413 385.488 73.2501C385.48 73.6015 385.472 73.8828 385.467 74.1074C385.46 74.297 385.454 74.3908 385.446 74.3836Z" fill="#E1E1E1"/>
<path d="M458.372 271.887H348.201V119.915H458.372V271.887Z" fill="white"/>
<path d="M458.372 271.887C458.372 271.887 458.363 271.635 458.358 271.154C458.355 270.665 458.35 269.953 458.345 269.016C458.338 267.128 458.328 264.346 458.316 260.728C458.301 253.487 458.281 242.91 458.253 229.524C458.224 202.774 458.185 164.811 458.137 119.915L458.372 120.148C425.118 120.155 387.679 120.163 348.214 120.172H348.202L348.461 119.915C348.443 176.786 348.426 229.403 348.413 271.887L348.202 271.679C381.613 271.724 409.129 271.761 428.304 271.787C437.899 271.811 445.404 271.828 450.522 271.84C453.075 271.851 455.032 271.859 456.359 271.864C457.68 271.871 458.372 271.887 458.372 271.887C458.372 271.887 457.711 271.902 456.403 271.91C455.085 271.915 453.142 271.923 450.606 271.933C445.5 271.946 438.01 271.963 428.436 271.987C409.23 272.013 381.668 272.05 348.202 272.095L347.992 272.096V271.887C347.978 229.403 347.96 176.786 347.943 119.915V119.657H348.202H348.214C387.679 119.666 425.118 119.674 458.372 119.681H458.608L458.607 119.915C458.559 164.874 458.519 202.889 458.491 229.676C458.464 243.039 458.443 253.599 458.428 260.828C458.416 264.426 458.406 267.191 458.399 269.069C458.394 269.994 458.389 270.698 458.386 271.181C458.381 271.653 458.372 271.887 458.372 271.887Z" fill="#E1E1E1"/>
<path d="M445.142 205.735H359.304V200.258H445.142V205.735Z" fill="#F5F5F5"/>
<path d="M427.402 208.083H379.042V198.183H427.402V208.083Z" fill="#F5F5F5"/>
<path d="M395.568 184.767C398.101 184.767 399.323 183.198 399.323 180.329V164.188C399.323 161.32 398.101 159.75 395.522 159.75H391.722V184.767H395.568ZM395.613 156.567C400.545 156.567 402.809 159.527 402.809 164.368V180.194C402.809 184.991 400.545 187.95 395.613 187.95H388.192V156.567H395.613Z" fill="#E1E1E1"/>
<path d="M409.323 180.553C409.323 183.423 410.545 185.081 413.078 185.081C415.658 185.081 416.835 183.423 416.835 180.553V163.964C416.835 161.14 415.658 159.437 413.078 159.437C410.545 159.437 409.323 161.14 409.323 163.964V180.553ZM405.839 164.144C405.839 159.347 408.237 156.254 413.078 156.254C417.965 156.254 420.363 159.347 420.363 164.144V180.374C420.363 185.126 417.965 188.265 413.078 188.265C408.237 188.265 405.839 185.126 405.839 180.374V164.144Z" fill="#E1E1E1"/>
<path d="M397.849 250.578H394.001V216.361H397.849V250.578Z" fill="#E1E1E1"/>
<path d="M406.828 250.578V219.832H400.464V216.361H417.04V219.832H410.676V250.578H406.828Z" fill="#E1E1E1"/>
<path d="M362.171 159.166L366.348 174.121L370.026 169.986L376.151 180.308L372.093 162.551L368.3 166.815L362.171 159.166Z" fill="#F5F5F5"/>
<path d="M444.194 157.657L440.016 172.612L436.338 168.477L430.213 178.799L434.271 161.042L438.064 165.307L444.194 157.657Z" fill="#F5F5F5"/>
<path d="M402.699 127.303L397.259 145.144L403.67 143.282L403.207 157.656L410.584 137.046L403.97 138.967L402.699 127.303Z" fill="#E1E1E1"/>
<path d="M426.839 184.149H425.843V143.887H381.999V184.149H381.004V142.9H426.839V184.149Z" fill="#E1E1E1"/>
<path d="M426.839 256.87H381.004V215.62H381.999V255.884H425.843V215.62H426.839V256.87Z" fill="#E1E1E1"/>
<path d="M375.741 221.784H372.461C370.638 221.784 369.161 220.32 369.161 218.515V187.419C369.161 185.614 370.638 184.149 372.461 184.149H375.741C377.563 184.149 379.041 185.614 379.041 187.419V218.515C379.041 220.32 377.563 221.784 375.741 221.784Z" fill="#E1E1E1"/>
<path d="M433.982 221.784H430.702C428.879 221.784 427.402 220.32 427.402 218.515V187.419C427.402 185.614 428.879 184.149 430.702 184.149H433.982C435.804 184.149 437.282 185.614 437.282 187.419V218.515C437.282 220.32 435.804 221.784 433.982 221.784Z" fill="#E1E1E1"/>
<path d="M369.161 207.73H365.092V197.247H369.161V207.73Z" fill="#ECECEC"/>
<path d="M441.272 207.73H437.204V197.247H441.272V207.73Z" fill="#ECECEC"/>
<path d="M368.555 117.682L344.111 136.276L340.74 131.925L365.184 113.331L368.555 117.682Z" fill="#E1E1E1"/>
<path d="M465.098 260.727L440.654 279.321L437.283 274.971L461.726 256.377L465.098 260.727Z" fill="#E1E1E1"/>
<path d="M117.406 86.3707C117.399 86.3635 117.392 86.2573 117.385 86.0543C117.38 85.8215 117.373 85.5278 117.364 85.161C117.352 84.3418 117.335 83.1991 117.313 81.7348C117.287 78.7291 117.249 74.4076 117.2 68.9598L117.406 69.1638C102.238 69.1937 78.1177 69.2411 50.9831 69.2947C51.1318 69.1452 50.6409 69.6295 51.3169 68.9598V68.9639V68.9732V68.9907V69.0257V69.0958V69.2359V69.5162V70.0757V71.1916C51.3169 71.9346 51.3169 72.6754 51.3169 73.4122C51.3159 74.8888 51.3159 76.353 51.3159 77.8069C51.3138 80.7127 51.3117 83.571 51.3096 86.3707L50.9789 86.043C69.8944 86.1017 86.446 86.1543 98.3166 86.1914C104.23 86.2316 108.975 86.2635 112.289 86.2852C113.901 86.3037 115.165 86.3181 116.067 86.3284C116.474 86.3367 116.799 86.3439 117.055 86.349C117.281 86.3563 117.399 86.3635 117.406 86.3707C117.413 86.3779 117.309 86.3851 117.098 86.3923C116.853 86.3975 116.541 86.4047 116.151 86.4129C115.264 86.4232 114.026 86.4377 112.444 86.4562C109.147 86.4778 104.429 86.5098 98.5475 86.5489C86.6187 86.5871 69.987 86.6386 50.9789 86.6984L50.6482 86.6994L50.6471 86.3707C50.6461 83.571 50.644 80.7127 50.6419 77.8069C50.6419 76.353 50.6409 74.8888 50.6409 73.4122C50.6409 72.6754 50.6409 71.9346 50.6409 71.1916L50.6399 70.0757V69.5162V69.2359V69.0958V69.0257V68.9907V68.9732V68.9639V68.9598C51.3179 68.289 50.8302 68.7743 50.9831 68.6239C78.1177 68.6774 102.238 68.7248 117.406 68.7557H117.614L117.612 68.9598C117.563 74.4591 117.524 78.8219 117.498 81.8564C117.477 83.3011 117.46 84.4284 117.448 85.2372C117.439 85.5886 117.432 85.8709 117.427 86.0945C117.419 86.2841 117.413 86.3779 117.406 86.3707Z" fill="#E1E1E1"/>
<path d="M126.413 68.9595C126.404 68.9512 126.396 68.8389 126.387 68.6277C126.38 68.3783 126.371 68.0754 126.361 67.7054C126.346 66.8492 126.326 65.6838 126.3 64.2144C126.269 61.1613 126.224 56.85 126.169 51.5485L126.413 51.7897C116.073 51.8134 102.007 51.8474 86.5036 51.8834C86.1989 52.1833 86.9123 51.4754 86.8395 51.5496V51.5547V51.564V51.5815V51.6176V51.6887V51.8319V52.1184V52.6892L86.8385 53.8278C86.8385 54.5841 86.8384 55.3374 86.8374 56.0855C86.8374 57.5816 86.8353 59.0603 86.8353 60.5173C86.8301 63.4292 86.827 66.2536 86.8228 68.9595L86.5015 68.64C98.0226 68.7019 107.942 68.7544 115.052 68.7915C118.557 68.8286 121.369 68.8585 123.368 68.8801C124.302 68.8966 125.046 68.91 125.611 68.9203C126.125 68.9337 126.399 68.9461 126.413 68.9595C126.426 68.9729 126.177 68.9852 125.688 68.9986C125.141 69.0089 124.419 69.0223 123.512 69.0388C121.53 69.0604 118.745 69.0903 115.269 69.1274C108.105 69.1645 98.111 69.2171 86.5015 69.2789L86.1791 69.2799L86.1781 68.9595C86.1749 66.2536 86.1708 63.4292 86.1666 60.5173C86.1656 59.0603 86.1645 57.5816 86.1635 56.0855C86.1625 55.3374 86.1625 54.5841 86.1625 53.8278V52.6892V52.1184V51.8319V51.6887V51.6176V51.5815V51.564V51.5547V51.5496C86.0876 51.6207 86.8041 50.9128 86.5036 51.2126C102.007 51.2497 116.073 51.2827 126.413 51.3074H126.658L126.656 51.5485C126.601 56.9119 126.556 61.2726 126.525 64.3607C126.499 65.8074 126.479 66.9543 126.465 67.7982C126.446 68.5761 126.429 68.976 126.413 68.9595Z" fill="#E1E1E1"/>
<path d="M99.6476 381.256C99.6403 381.249 99.6341 381.143 99.6268 380.94C99.6216 380.707 99.6143 380.413 99.606 380.046C99.5935 379.227 99.5769 378.084 99.555 376.62C99.529 373.614 99.4906 369.293 99.4417 363.845L99.6476 364.049C84.4802 364.079 60.3595 364.126 33.2249 364.18C33.3736 364.031 32.8827 364.515 33.5587 363.845V363.849V363.858V363.876V363.911V363.981V364.121V364.401V364.961V366.077C33.5587 366.82 33.5587 367.561 33.5587 368.297C33.5577 369.774 33.5577 371.238 33.5566 372.692C33.5556 375.598 33.5535 378.456 33.5514 381.256L33.2207 380.928C52.1362 380.988 68.6878 381.04 80.5584 381.077C86.4718 381.117 91.2163 381.149 94.5308 381.17C96.1428 381.189 97.4054 381.203 98.3091 381.214C98.7158 381.222 99.0413 381.229 99.2971 381.234C99.5228 381.242 99.6403 381.249 99.6476 381.256C99.6549 381.263 99.5509 381.27 99.3398 381.278C99.0943 381.283 98.7823 381.29 98.3923 381.298C97.5062 381.309 96.2676 381.323 94.6858 381.341C91.389 381.363 86.6705 381.395 80.7893 381.435C68.8605 381.472 52.2288 381.524 33.2207 381.584L32.89 381.586L32.889 381.256C32.8879 378.456 32.8858 375.598 32.8838 372.692C32.8838 371.238 32.8827 369.774 32.8827 368.297C32.8827 367.561 32.8827 366.82 32.8827 366.077L32.8817 364.961V364.401V364.121V363.981V363.911V363.876V363.858V363.849V363.845C33.5598 363.174 33.072 363.66 33.2249 363.509C60.3595 363.563 84.4802 363.611 99.6476 363.641H99.8556L99.8535 363.845C99.8046 369.345 99.7662 373.707 99.7402 376.742C99.7183 378.186 99.7017 379.314 99.6902 380.123C99.6809 380.474 99.6736 380.756 99.6684 380.98C99.6611 381.169 99.6549 381.263 99.6476 381.256Z" fill="#E1E1E1"/>
<path d="M108.654 363.845C108.646 363.837 108.638 363.724 108.629 363.513C108.622 363.264 108.613 362.961 108.602 362.591C108.588 361.733 108.568 360.569 108.542 359.1C108.511 356.047 108.466 351.735 108.411 346.434L108.654 346.675C98.3146 346.699 84.2486 346.733 68.7454 346.769C68.4406 347.069 69.1541 346.361 69.0813 346.435V346.44V346.449V346.467V346.503V346.574V346.717V347.004V347.575L69.0802 348.713C69.0802 349.47 69.0802 350.223 69.0802 350.971C69.0792 352.467 69.0782 353.946 69.0771 355.403C69.073 358.315 69.0688 361.139 69.0646 363.845L68.7422 363.525C80.2644 363.586 90.1839 363.64 97.2934 363.677C100.799 363.714 103.61 363.744 105.61 363.765C106.544 363.782 107.288 363.795 107.852 363.806C108.367 363.819 108.641 363.831 108.654 363.845C108.668 363.858 108.419 363.871 107.929 363.884C107.382 363.894 106.661 363.908 105.754 363.924C103.772 363.946 100.986 363.976 97.5107 364.013C90.3472 364.05 80.3518 364.102 68.7422 364.164L68.4209 364.165L68.4198 363.845C68.4167 361.139 68.4126 358.315 68.4084 355.403C68.4074 353.946 68.4063 352.467 68.4053 350.971C68.4042 350.223 68.4042 349.47 68.4042 348.713V347.575V347.004V346.717V346.574V346.503V346.467V346.449V346.44V346.435C68.3294 346.506 69.0459 345.798 68.7454 346.098C84.2486 346.135 98.3146 346.168 108.654 346.193H108.9L108.898 346.434C108.843 351.797 108.798 356.158 108.767 359.246C108.741 360.693 108.721 361.84 108.706 362.684C108.688 363.463 108.671 363.861 108.654 363.845Z" fill="#E1E1E1"/>
<path d="M432.794 380.895C432.787 380.888 432.781 380.781 432.773 380.578C432.768 380.346 432.761 380.052 432.752 379.685C432.74 378.866 432.723 377.723 432.702 376.259C432.676 373.253 432.637 368.932 432.588 363.484L432.794 363.688C417.627 363.718 393.505 363.765 366.371 363.819C366.521 363.669 366.029 364.154 366.705 363.484V363.488V363.497V363.515V363.55V363.62V363.76V364.04V364.6V365.716C366.705 366.459 366.705 367.2 366.705 367.936C366.704 369.413 366.704 370.877 366.703 372.331C366.702 375.237 366.7 378.095 366.698 380.895L366.367 380.567C385.283 380.627 401.834 380.678 413.705 380.715C419.618 380.756 424.363 380.788 427.677 380.809C429.289 380.828 430.553 380.842 431.456 380.853C431.862 380.861 432.188 380.868 432.444 380.873C432.668 380.88 432.787 380.888 432.794 380.895C432.801 380.902 432.697 380.909 432.486 380.916C432.241 380.922 431.929 380.929 431.539 380.937C430.653 380.947 429.414 380.962 427.832 380.98C424.535 381.002 419.817 381.034 413.936 381.073C402.007 381.111 385.375 381.163 366.367 381.222L366.036 381.223L366.035 380.895C366.034 378.095 366.032 375.237 366.03 372.331C366.03 370.877 366.029 369.413 366.029 367.936C366.029 367.2 366.029 366.459 366.029 365.716L366.028 364.6V364.04V363.76V363.62V363.55V363.515V363.497V363.488V363.484C366.705 362.813 366.218 363.298 366.371 363.148C393.505 363.202 417.627 363.25 432.794 363.28H433.002L433 363.484C432.951 368.983 432.913 373.346 432.887 376.381C432.865 377.825 432.848 378.952 432.837 379.761C432.827 380.113 432.82 380.394 432.815 380.619C432.808 380.808 432.801 380.902 432.794 380.895Z" fill="#E1E1E1"/>
<path d="M441.801 363.484C441.792 363.475 441.784 363.363 441.775 363.152C441.769 362.902 441.759 362.599 441.749 362.23C441.734 361.372 441.714 360.208 441.688 358.739C441.657 355.685 441.613 351.374 441.557 346.073L441.801 346.314C431.461 346.337 417.395 346.371 401.892 346.408C401.587 346.707 402.301 345.999 402.228 346.074V346.079V346.088V346.106V346.142V346.213V346.356V346.642V347.213L402.227 348.352C402.227 349.108 402.227 349.861 402.227 350.61C402.226 352.106 402.224 353.584 402.224 355.041C402.219 357.953 402.215 360.778 402.211 363.484L401.89 363.164C413.411 363.226 423.33 363.279 430.44 363.316C433.946 363.353 436.757 363.383 438.757 363.404C439.691 363.421 440.434 363.434 440.999 363.444C441.514 363.458 441.787 363.47 441.801 363.484C441.814 363.497 441.566 363.509 441.076 363.523C440.529 363.533 439.807 363.546 438.9 363.563C436.918 363.585 434.133 363.614 430.657 363.652C423.494 363.689 413.499 363.741 401.89 363.803L401.567 363.804L401.566 363.484C401.563 360.778 401.559 357.953 401.555 355.041C401.554 353.584 401.553 352.106 401.552 350.61C401.552 349.861 401.551 349.108 401.551 348.352V347.213V346.642V346.356V346.213V346.142V346.106V346.088V346.079V346.074C401.476 346.145 402.192 345.437 401.892 345.737C417.395 345.774 431.461 345.807 441.801 345.832H442.046L442.044 346.073C441.989 351.436 441.944 355.797 441.913 358.885C441.887 360.332 441.867 361.478 441.853 362.322C441.834 363.101 441.817 363.5 441.801 363.484Z" fill="#E1E1E1"/>
<path d="M435.487 416.072H450.664V470.187H435.487V416.072Z" fill="#ECECEC"/>
<path d="M419.535 420.403V403.575C419.535 402.292 420.584 401.253 421.88 401.253H464.271C465.565 401.253 466.616 402.292 466.616 403.575V420.403C466.616 421.686 465.565 422.726 464.271 422.726H421.88C420.584 422.726 419.535 421.686 419.535 420.403Z" fill="#ECECEC"/>
<path d="M419.535 420.403C419.581 420.388 419.487 420.906 419.963 421.642C420.206 421.993 420.62 422.381 421.231 422.551C421.83 422.714 422.604 422.599 423.442 422.621C426.855 422.601 431.733 422.572 437.745 422.537C443.795 422.52 450.982 422.501 458.959 422.479C459.956 422.477 460.967 422.476 461.99 422.474C462.5 422.473 463.014 422.473 463.531 422.472L464.305 422.469C464.537 422.469 464.766 422.42 464.984 422.343C465.88 422.027 466.457 421.11 466.353 420.102C466.352 419.046 466.351 417.979 466.35 416.904C466.348 412.598 466.346 408.143 466.345 403.578C466.365 402.552 465.509 401.619 464.492 401.532C463.412 401.508 462.24 401.525 461.132 401.519C458.887 401.517 456.676 401.516 454.504 401.515C450.16 401.509 445.968 401.504 441.975 401.5C437.983 401.491 434.189 401.482 430.637 401.474C428.862 401.469 427.147 401.464 425.499 401.46C424.675 401.457 423.867 401.454 423.078 401.45C422.683 401.449 422.292 401.447 421.905 401.446C421.546 401.442 421.201 401.528 420.89 401.681C420.271 401.994 419.837 402.604 419.744 403.255C419.686 403.909 419.722 404.644 419.707 405.304C419.7 406.651 419.693 407.921 419.686 409.111C419.668 411.478 419.653 413.523 419.64 415.207C419.619 416.853 419.601 418.144 419.589 419.059C419.578 419.476 419.569 419.807 419.563 420.062C419.553 420.287 419.544 420.403 419.535 420.403C419.525 420.403 419.516 420.287 419.507 420.062C419.5 419.807 419.491 419.476 419.481 419.059C419.468 418.144 419.451 416.853 419.43 415.207C419.416 413.523 419.402 411.478 419.383 409.111C419.377 407.921 419.369 406.651 419.362 405.304C419.373 404.619 419.325 403.963 419.384 403.201C419.487 402.439 419.987 401.719 420.714 401.345C421.075 401.16 421.491 401.056 421.905 401.058C422.292 401.057 422.683 401.055 423.078 401.054C423.867 401.051 424.675 401.048 425.499 401.045C427.147 401.04 428.862 401.035 430.637 401.03C434.189 401.022 437.983 401.014 441.975 401.005C445.968 401 450.16 400.995 454.504 400.989C456.676 400.988 458.887 400.987 461.132 400.986C462.265 400.992 463.355 400.969 464.549 400.999C465.833 401.108 466.912 402.284 466.886 403.578C466.884 408.143 466.883 412.598 466.881 416.904C466.88 417.979 466.879 419.046 466.878 420.102C467.006 421.213 466.281 422.467 465.162 422.824C464.889 422.921 464.601 422.979 464.312 422.98H463.531C463.014 422.98 462.5 422.979 461.99 422.978C460.967 422.977 459.956 422.975 458.959 422.974C450.982 422.952 443.795 422.933 437.745 422.916C431.733 422.88 426.855 422.851 423.442 422.83C423.021 422.826 422.622 422.822 422.247 422.818C421.88 422.819 421.504 422.812 421.184 422.705C420.535 422.505 420.112 422.077 419.872 421.702C419.632 421.316 419.558 420.973 419.535 420.747C419.512 420.519 419.535 420.403 419.535 420.403Z" fill="#E1E1E1"/>
<path d="M419.535 485.258V468.43C419.535 467.147 420.584 466.106 421.88 466.106H464.271C465.565 466.106 466.616 467.147 466.616 468.43V485.258C466.616 486.54 465.565 487.581 464.271 487.581H421.88C420.584 487.581 419.535 486.54 419.535 485.258Z" fill="#ECECEC"/>
<path d="M419.535 485.258C419.581 485.242 419.487 485.76 419.963 486.497C420.206 486.846 420.62 487.236 421.231 487.406C421.83 487.568 422.604 487.453 423.442 487.476C426.855 487.455 431.733 487.427 437.745 487.391C443.795 487.375 450.982 487.355 458.959 487.334C459.956 487.332 460.967 487.331 461.99 487.329C462.5 487.328 463.014 487.328 463.531 487.327L464.305 487.324C464.537 487.324 464.766 487.275 464.984 487.198C465.88 486.881 466.457 485.964 466.353 484.957C466.352 483.9 466.351 482.834 466.35 481.758C466.348 477.453 466.346 472.998 466.345 468.433C466.365 467.407 465.509 466.474 464.492 466.387C463.412 466.363 462.24 466.379 461.132 466.374C458.887 466.372 456.676 466.371 454.504 466.37C450.16 466.364 445.968 466.359 441.975 466.354C437.983 466.345 434.189 466.337 430.637 466.329C428.862 466.324 427.147 466.319 425.499 466.313C424.675 466.311 423.867 466.308 423.078 466.305C422.683 466.304 422.292 466.302 421.905 466.301C421.546 466.297 421.201 466.382 420.89 466.536C420.271 466.849 419.837 467.459 419.744 468.109C419.686 468.764 419.722 469.497 419.707 470.159C419.7 471.505 419.693 472.775 419.686 473.965C419.668 476.333 419.653 478.376 419.64 480.061C419.619 481.708 419.601 482.999 419.589 483.914C419.578 484.331 419.569 484.662 419.563 484.916C419.553 485.142 419.544 485.258 419.535 485.258C419.525 485.258 419.516 485.142 419.507 484.916C419.5 484.662 419.491 484.331 419.481 483.914C419.468 482.999 419.451 481.708 419.43 480.061C419.416 478.376 419.402 476.333 419.383 473.965C419.377 472.775 419.369 471.505 419.362 470.159C419.373 469.474 419.325 468.817 419.384 468.056C419.487 467.294 419.987 466.574 420.714 466.2C421.075 466.015 421.491 465.91 421.905 465.913C422.292 465.912 422.683 465.909 423.078 465.908C423.867 465.905 424.675 465.902 425.499 465.9C427.147 465.895 428.862 465.89 430.637 465.885C434.189 465.876 437.983 465.868 441.975 465.86C445.968 465.855 450.16 465.85 454.504 465.843C456.676 465.842 458.887 465.841 461.132 465.839C462.265 465.847 463.355 465.824 464.549 465.854C465.833 465.963 466.912 467.139 466.886 468.433C466.884 472.998 466.883 477.453 466.881 481.758C466.88 482.834 466.879 483.9 466.878 484.957C467.006 486.067 466.281 487.321 465.162 487.679C464.889 487.776 464.601 487.834 464.312 487.834L463.531 487.835C463.014 487.835 462.5 487.834 461.99 487.833C460.967 487.832 459.956 487.829 458.959 487.827C450.982 487.806 443.795 487.787 437.745 487.771C431.733 487.735 426.855 487.706 423.442 487.685C423.021 487.681 422.622 487.677 422.247 487.673C421.88 487.674 421.504 487.667 421.184 487.559C420.535 487.36 420.112 486.932 419.872 486.557C419.632 486.17 419.558 485.827 419.535 485.602C419.512 485.374 419.535 485.258 419.535 485.258Z" fill="#E1E1E1"/>
<path d="M453.355 487.273C453.205 487.273 453.085 482.604 453.085 476.843C453.085 471.081 453.205 466.413 453.355 466.413C453.505 466.413 453.626 471.081 453.626 476.843C453.626 482.604 453.505 487.273 453.355 487.273Z" fill="#E1E1E1"/>
<path d="M433.644 487.273C433.494 487.273 433.374 482.604 433.374 476.843C433.374 471.081 433.494 466.413 433.644 466.413C433.794 466.413 433.915 471.081 433.915 476.843C433.915 482.604 433.794 487.273 433.644 487.273Z" fill="#E1E1E1"/>
<path d="M453.355 422.489C453.205 422.489 453.085 417.819 453.085 412.059C453.085 406.297 453.205 401.628 453.355 401.628C453.505 401.628 453.626 406.297 453.626 412.059C453.626 417.819 453.505 422.489 453.355 422.489Z" fill="#E1E1E1"/>
<path d="M433.644 422.489C433.494 422.489 433.374 417.819 433.374 412.059C433.374 406.297 433.494 401.628 433.644 401.628C433.794 401.628 433.915 406.297 433.915 412.059C433.915 417.819 433.794 422.489 433.644 422.489Z" fill="#E1E1E1"/>
</g>
<mask id="mask1_1201_511" style="mask-type:luminance" maskUnits="userSpaceOnUse" x="0" y="0" width="520" height="516">
<path d="M0 0.396348H520V515.604H0V0.396348Z" fill="white"/>
</mask>
<g mask="url(#mask1_1201_511)">
<path d="M77.0506 124.986L78.2414 121.212C88.2847 89.4023 114.757 65.2267 147.557 59.342C151.774 58.5857 156.047 58.1302 160.341 57.9973C191.257 57.0349 222.295 72.7796 239.914 98.3627C250.275 113.408 256.774 132.061 271.875 142.32C291.527 155.672 317.776 149.815 340.561 143.485C363.344 137.153 389.628 131.359 409.222 144.796C421.493 153.213 428.358 167.773 431.18 182.376C438.652 221.039 420.324 261.732 390.422 287.05C360.52 312.369 320.712 323.727 281.495 325.414C226.557 327.774 169.63 311.257 128.66 274.248C87.6877 237.24 65.0521 178.695 77.0506 124.986Z" fill="#F5F5F5"/>
</g>
<mask id="mask2_1201_511" style="mask-type:luminance" maskUnits="userSpaceOnUse" x="0" y="0" width="520" height="516">
<path d="M0 0.396348H520V515.604H0V0.396348Z" fill="white"/>
</mask>
<g mask="url(#mask2_1201_511)">
<path d="M487.118 487.581C487.118 487.729 385.426 487.849 260.011 487.849C134.553 487.849 32.8823 487.729 32.8823 487.581C32.8823 487.432 134.553 487.313 260.011 487.313C385.426 487.313 487.118 487.432 487.118 487.581Z" fill="#1A2E35"/>
</g>
<path d="M410.337 471.529H355.718V455.731H410.337V471.529Z" fill="#375A64"/>
<mask id="mask3_1201_511" style="mask-type:luminance" maskUnits="userSpaceOnUse" x="0" y="0" width="520" height="516">
<path d="M0 0.396348H520V515.604H0V0.396348Z" fill="white"/>
</mask>
<g mask="url(#mask3_1201_511)">
<path d="M360.089 487.581H343.105C341.81 487.581 340.761 486.541 340.761 485.257V443.257C340.761 441.975 341.81 440.934 343.105 440.934H360.089C361.384 440.934 362.434 441.975 362.434 443.257V485.257C362.434 486.541 361.384 487.581 360.089 487.581Z" fill="#375A64"/>
<path d="M360.089 487.581C360.074 487.534 360.597 487.628 361.34 487.156C361.693 486.915 362.086 486.505 362.258 485.9C362.421 485.307 362.306 484.54 362.328 483.71C362.309 480.328 362.278 475.495 362.242 469.538C362.226 463.544 362.207 456.423 362.185 448.52C362.183 447.532 362.182 446.53 362.18 445.517C362.179 445.011 362.179 444.502 362.178 443.99L362.174 443.224C362.174 442.994 362.126 442.766 362.048 442.551C361.728 441.662 360.803 441.09 359.786 441.194C358.72 441.195 357.643 441.196 356.557 441.197C352.212 441.199 347.715 441.201 343.108 441.202C342.072 441.182 341.131 442.03 341.043 443.038C341.019 444.108 341.035 445.269 341.029 446.367C341.028 448.591 341.027 450.782 341.026 452.934C341.02 457.238 341.015 461.391 341.009 465.348C341.001 469.302 340.993 473.061 340.984 476.581C340.979 478.339 340.974 480.038 340.969 481.671C340.967 482.487 340.964 483.287 340.961 484.07C340.96 484.462 340.957 484.849 340.956 485.231C340.952 485.588 341.039 485.93 341.194 486.238C341.51 486.851 342.125 487.281 342.782 487.374C343.442 487.43 344.182 487.394 344.85 487.41C346.208 487.417 347.491 487.424 348.692 487.43C351.082 487.448 353.144 487.463 354.845 487.477C356.506 487.497 357.81 487.515 358.733 487.526C359.154 487.538 359.488 487.547 359.745 487.553C359.973 487.562 360.089 487.572 360.089 487.581C360.089 487.59 359.973 487.599 359.745 487.609C359.488 487.615 359.154 487.624 358.733 487.634C357.81 487.647 356.506 487.663 354.845 487.685C353.145 487.697 351.082 487.713 348.692 487.73C347.491 487.737 346.208 487.744 344.85 487.752C344.159 487.741 343.496 487.789 342.728 487.73C341.958 487.628 341.232 487.133 340.854 486.412C340.666 486.055 340.562 485.643 340.564 485.231C340.563 484.849 340.561 484.462 340.56 484.07C340.557 483.287 340.554 482.487 340.552 481.671C340.547 480.038 340.541 478.339 340.536 476.581C340.528 473.061 340.52 469.302 340.511 465.348C340.506 461.391 340.501 457.238 340.495 452.934C340.494 450.782 340.493 448.591 340.49 446.367C340.497 445.244 340.475 444.164 340.505 442.981C340.615 441.709 341.802 440.64 343.108 440.666C347.715 440.667 352.212 440.669 356.557 440.671C357.643 440.672 358.72 440.673 359.786 440.674C360.907 440.546 362.172 441.266 362.533 442.374C362.631 442.644 362.689 442.93 362.689 443.216L362.69 443.99C362.69 444.502 362.689 445.011 362.688 445.517C362.687 446.53 362.685 447.532 362.684 448.52C362.662 456.423 362.642 463.544 362.626 469.538C362.589 475.495 362.56 480.328 362.54 483.71C362.535 484.126 362.531 484.522 362.527 484.893C362.528 485.257 362.52 485.629 362.413 485.947C362.211 486.59 361.779 487.009 361.401 487.247C361.011 487.484 360.664 487.558 360.437 487.58C360.207 487.603 360.089 487.581 360.089 487.581Z" fill="#1A2E35"/>
<path d="M425.547 487.581H408.563C407.268 487.581 406.218 486.541 406.218 485.257V443.257C406.218 441.975 407.268 440.934 408.563 440.934H425.547C426.842 440.934 427.893 441.975 427.893 443.257V485.257C427.893 486.541 426.842 487.581 425.547 487.581Z" fill="#375A64"/>
<path d="M425.547 487.581C425.532 487.534 426.055 487.628 426.798 487.156C427.151 486.915 427.544 486.505 427.716 485.9C427.879 485.307 427.764 484.54 427.786 483.71C427.767 480.328 427.736 475.495 427.7 469.538C427.684 463.544 427.665 456.423 427.643 448.52C427.641 447.532 427.64 446.53 427.638 445.517C427.637 445.011 427.637 444.502 427.636 443.99L427.632 443.224C427.632 442.994 427.584 442.766 427.506 442.551C427.186 441.662 426.261 441.09 425.244 441.194C424.178 441.195 423.101 441.196 422.015 441.197C417.67 441.199 413.173 441.201 408.566 441.202C407.53 441.182 406.589 442.03 406.501 443.038C406.477 444.108 406.493 445.269 406.487 446.367C406.486 448.591 406.485 450.782 406.484 452.934C406.478 457.238 406.473 461.391 406.467 465.348C406.459 469.302 406.451 473.061 406.442 476.581C406.437 478.339 406.432 480.038 406.427 481.671C406.425 482.487 406.422 483.287 406.419 484.07C406.418 484.462 406.415 484.849 406.414 485.231C406.41 485.588 406.497 485.93 406.652 486.238C406.968 486.851 407.583 487.281 408.24 487.374C408.9 487.43 409.64 487.394 410.308 487.41C411.666 487.417 412.949 487.424 414.15 487.43C416.54 487.448 418.603 487.463 420.304 487.477C421.964 487.497 423.268 487.515 424.191 487.526C424.612 487.538 424.946 487.547 425.203 487.553C425.431 487.562 425.547 487.572 425.547 487.581C425.547 487.59 425.431 487.599 425.203 487.609C424.946 487.615 424.612 487.624 424.191 487.634C423.268 487.647 421.964 487.663 420.304 487.685C418.603 487.697 416.54 487.713 414.15 487.73C412.949 487.737 411.666 487.744 410.308 487.752C409.617 487.741 408.954 487.789 408.186 487.73C407.416 487.628 406.69 487.133 406.312 486.412C406.124 486.055 406.02 485.643 406.022 485.231C406.021 484.849 406.019 484.462 406.018 484.07C406.015 483.287 406.012 482.487 406.01 481.671C406.005 480.038 405.999 478.339 405.994 476.581C405.986 473.061 405.978 469.302 405.969 465.348C405.964 461.391 405.959 457.238 405.953 452.934C405.952 450.782 405.951 448.591 405.948 446.367C405.955 445.244 405.933 444.164 405.963 442.981C406.073 441.709 407.26 440.64 408.566 440.666C413.173 440.667 417.67 440.669 422.015 440.671C423.101 440.672 424.178 440.673 425.244 440.674C426.365 440.546 427.63 441.266 427.991 442.374C428.089 442.644 428.147 442.93 428.147 443.216L428.148 443.99C428.148 444.502 428.147 445.011 428.146 445.517C428.145 446.53 428.143 447.532 428.142 448.52C428.12 456.423 428.1 463.544 428.084 469.538C428.047 475.495 428.018 480.328 427.998 483.71C427.993 484.126 427.989 484.522 427.985 484.893C427.986 485.257 427.979 485.629 427.871 485.947C427.669 486.59 427.237 487.009 426.859 487.247C426.469 487.484 426.122 487.558 425.895 487.58C425.665 487.603 425.547 487.581 425.547 487.581Z" fill="#1A2E35"/>
<path d="M427.582 454.072C427.582 454.221 422.868 454.34 417.055 454.34C411.239 454.34 406.527 454.221 406.527 454.072C406.527 453.924 411.239 453.804 417.055 453.804C422.868 453.804 427.582 453.924 427.582 454.072Z" fill="#1A2E35"/>
<path d="M427.582 473.602C427.582 473.75 422.868 473.869 417.055 473.869C411.239 473.869 406.527 473.75 406.527 473.602C406.527 473.453 411.239 473.334 417.055 473.334C422.868 473.334 427.582 473.453 427.582 473.602Z" fill="#1A2E35"/>
<path d="M362.195 454.072C362.195 454.221 357.482 454.34 351.668 454.34C345.852 454.34 341.14 454.221 341.14 454.072C341.14 453.924 345.852 453.804 351.668 453.804C357.482 453.804 362.195 453.924 362.195 454.072Z" fill="#1A2E35"/>
<path d="M362.195 473.602C362.195 473.75 357.482 473.869 351.668 473.869C345.852 473.869 341.14 473.75 341.14 473.602C341.14 473.453 345.852 473.334 351.668 473.334C357.482 473.334 362.195 473.453 362.195 473.602Z" fill="#1A2E35"/>
</g>
<mask id="mask4_1201_511" style="mask-type:luminance" maskUnits="userSpaceOnUse" x="0" y="0" width="520" height="516">
<path d="M0 0.396348H520V515.604H0V0.396348Z" fill="white"/>
</mask>
<g mask="url(#mask4_1201_511)">
<path d="M282.923 204.729C282.923 204.729 309.432 210.72 312.192 229.988C315.188 250.9 309.216 293.004 309.961 300.006C310.704 307.009 310.803 312.738 310.803 312.738L364.637 341.28L353.674 355.683C353.674 355.683 305.869 353.81 293.223 344.597C280.576 335.384 277.973 323.96 278.345 313.641C278.717 303.323 278.311 246.94 278.311 246.94L282.923 204.729Z" fill="#C17560"/>
<path d="M301.243 242.649C301.373 242.742 299.339 245.643 297.154 249.412C294.955 253.174 293.44 256.37 293.294 256.306C293.229 256.277 293.524 255.44 294.11 254.128C294.694 252.817 295.581 251.04 296.685 249.144C297.788 247.249 298.897 245.597 299.749 244.44C300.602 243.281 301.185 242.608 301.243 242.649Z" fill="#7C4236"/>
<path d="M443.075 338.036C443.075 350.055 435.915 359.797 427.083 359.797C423.452 359.797 413.934 359.758 413.934 359.758C410.088 355.784 411.091 345.114 411.091 338.036C411.091 331.488 409.067 320.391 412.43 316.403C412.43 316.403 423.062 316.275 427.083 316.275C435.915 316.275 443.075 326.017 443.075 338.036Z" fill="#FF735D"/>
<mask id="mask5_1201_511" style="mask-type:luminance" maskUnits="userSpaceOnUse" x="410" y="316" width="34" height="44">
<path d="M410.487 316.274H443.075V359.798H410.487V316.274Z" fill="white"/>
</mask>
<g mask="url(#mask5_1201_511)">
<g opacity="0.300003">
<path d="M443.075 338.036C443.075 350.055 435.915 359.797 427.083 359.797C423.453 359.797 413.934 359.758 413.934 359.758C410.089 355.784 411.091 345.114 411.091 338.036C411.091 331.488 409.067 320.391 412.431 316.403C412.431 316.403 423.063 316.275 427.083 316.275C435.915 316.275 443.075 326.017 443.075 338.036Z" fill="black"/>
</g>
</g>
<path d="M426.26 337.997C426.26 350.016 420.742 359.758 413.934 359.758C407.128 359.758 401.609 350.016 401.609 337.997C401.609 325.978 407.128 316.235 413.934 316.235C420.742 316.235 426.26 325.978 426.26 337.997Z" fill="#FF735D"/>
<path d="M421.191 345.524H376.444C374.494 345.524 372.912 343.958 372.912 342.026V337.729C372.912 335.797 374.494 334.231 376.444 334.231H421.191C423.141 334.231 424.722 335.797 424.722 337.729V342.026C424.722 343.958 423.141 345.524 421.191 345.524Z" fill="#FF735D"/>
<path d="M417.025 327.931C415.842 325.868 412.994 322.058 412.994 322.058C408.685 317.893 404.862 321.527 404.862 321.527C402.739 319.793 400.161 320.426 398.398 322.371C393.531 319.881 390.893 325.727 390.893 325.727C381.507 325.195 383.578 334.23 383.578 334.23C383.578 334.23 386.225 334.447 386.247 334.661C386.605 338.134 381.632 344.839 381.632 344.839L370.97 355.683L388.14 355.413C391.135 356.467 393.886 356.213 396.105 353.134C400.831 356.576 403.055 352.307 403.055 352.307C407.504 355.268 410.111 350.793 410.111 350.793C410.111 350.793 414.586 352.917 415.98 344.453C416.487 341.364 418.207 329.994 417.025 327.931Z" fill="#C17560"/>
<path d="M393.086 344.197C393.011 344.163 393.503 343.032 394.192 341.172C394.88 339.313 395.742 336.708 396.401 333.766C396.56 333.036 396.664 332.322 396.597 331.652C396.514 330.979 396.322 330.339 396.02 329.791C395.41 328.689 394.464 327.95 393.648 327.409C391.983 326.344 390.846 325.813 390.892 325.727C390.909 325.694 391.203 325.796 391.721 326.017C392.236 326.241 392.982 326.57 393.855 327.09C394.715 327.605 395.753 328.346 396.455 329.551C396.804 330.152 397.026 330.852 397.124 331.598C397.208 332.356 397.094 333.128 396.931 333.878C396.263 336.862 395.333 339.473 394.549 341.311C393.763 343.15 393.146 344.225 393.086 344.197Z" fill="#7C4236"/>
<path d="M402.322 342.009C402.238 341.979 402.679 340.797 403.12 338.83C403.339 337.785 403.585 336.614 403.851 335.342C404.138 334.035 404.516 332.602 404.549 331.101C404.576 329.614 403.981 328.241 403.223 327.19C402.459 326.122 401.555 325.313 400.807 324.631C399.273 323.298 398.342 322.43 398.398 322.37C398.445 322.323 399.449 323.075 401.056 324.344C401.843 324.997 402.796 325.789 403.627 326.9C404.452 327.998 405.119 329.471 405.091 331.107C405.054 332.711 404.649 334.154 404.337 335.455C404.017 336.752 403.762 337.936 403.492 338.921C403.224 339.907 402.94 340.687 402.722 341.214C402.503 341.741 402.355 342.021 402.322 342.009Z" fill="#7C4236"/>
<path d="M410.136 340.07C410.064 340.048 410.365 338.837 410.908 336.898C411.198 335.88 411.524 334.739 411.876 333.502C412.214 332.238 412.519 330.798 412.21 329.352C411.906 327.905 411.103 326.667 410.232 325.707C409.353 324.741 408.386 324.029 407.558 323.466C405.88 322.359 404.775 321.749 404.821 321.672C404.838 321.64 405.131 321.757 405.644 322.002C406.156 322.25 406.892 322.618 407.767 323.147C408.635 323.681 409.655 324.377 410.6 325.372C411.533 326.36 412.408 327.666 412.74 329.243C413.077 330.833 412.726 332.358 412.358 333.634C411.971 334.92 411.589 336.049 411.274 337.008C410.637 338.92 410.208 340.091 410.136 340.07Z" fill="#7C4236"/>
<path d="M310.958 312.785C311.047 312.94 307.589 314.481 304.287 317.644C300.952 320.772 299.244 324.125 299.091 324.031C299.035 324.003 299.383 323.133 300.173 321.839C300.959 320.547 302.228 318.856 303.912 317.256C305.601 315.659 307.362 314.478 308.701 313.759C310.039 313.034 310.932 312.727 310.958 312.785Z" fill="#7C4236"/>
<path d="M382.814 339.654C382.814 351.673 375.654 361.415 366.822 361.415C363.191 361.415 353.674 361.376 353.674 361.376C349.827 357.402 350.83 346.733 350.83 339.654C350.83 333.106 348.806 322.009 352.169 318.02C352.169 318.02 362.801 317.893 366.822 317.893C375.654 317.893 382.814 327.635 382.814 339.654Z" fill="#FF735D"/>
<mask id="mask6_1201_511" style="mask-type:luminance" maskUnits="userSpaceOnUse" x="350" y="317" width="33" height="45">
<path d="M350.226 317.892H382.814V361.416H350.226V317.892Z" fill="white"/>
</mask>
<g mask="url(#mask6_1201_511)">
<g opacity="0.300003">
<path d="M382.814 339.654C382.814 351.673 375.654 361.415 366.822 361.415C363.191 361.415 353.674 361.376 353.674 361.376C349.827 357.402 350.83 346.733 350.83 339.654C350.83 333.105 348.806 322.009 352.169 318.02C352.169 318.02 362.801 317.892 366.822 317.892C375.654 317.892 382.814 327.635 382.814 339.654Z" fill="black"/>
</g>
</g>
<path d="M365.999 339.615C365.999 351.633 360.481 361.376 353.674 361.376C346.866 361.376 341.348 351.633 341.348 339.615C341.348 327.596 346.866 317.853 353.674 317.853C360.481 317.853 365.999 327.596 365.999 339.615Z" fill="#FF735D"/>
<path d="M364.197 339.615C364.187 339.615 364.176 339.531 364.162 339.367C364.149 339.172 364.134 338.934 364.114 338.644C364.098 338.007 364.012 337.071 363.885 335.871C363.793 335.27 363.692 334.607 363.582 333.885C363.411 333.171 363.298 332.379 363.046 331.559C362.616 329.904 361.968 328.048 360.926 326.167C360.383 325.241 359.778 324.286 358.982 323.429C358.225 322.543 357.255 321.776 356.139 321.236C355.024 320.699 353.707 320.465 352.408 320.71C351.106 320.952 349.887 321.666 348.857 322.611C346.77 324.516 345.369 327.258 344.434 330.183C343.499 333.128 343.074 336.337 343.046 339.612C343.074 342.889 343.498 346.099 344.434 349.044C345.369 351.97 346.77 354.712 348.857 356.618C349.887 357.563 351.107 358.277 352.408 358.52C353.708 358.764 355.025 358.53 356.14 357.993C357.255 357.453 358.226 356.686 358.983 355.799C359.778 354.942 360.384 353.987 360.926 353.061C361.969 351.18 362.616 349.324 363.046 347.669C363.298 346.85 363.411 346.058 363.582 345.344C363.692 344.621 363.793 343.959 363.885 343.358C364.012 342.157 364.098 341.222 364.114 340.585C364.134 340.294 364.149 340.057 364.162 339.862C364.176 339.698 364.187 339.615 364.197 339.615C364.206 339.615 364.213 339.698 364.217 339.862C364.219 340.058 364.221 340.296 364.224 340.588C364.242 341.228 364.191 342.169 364.095 343.381C364.03 343.983 363.933 344.653 363.837 345.387C363.68 346.109 363.58 346.912 363.34 347.745C362.933 349.423 362.304 351.312 361.262 353.244C360.719 354.195 360.109 355.179 359.296 356.074C358.521 356.996 357.517 357.812 356.333 358.394C355.153 358.975 353.727 359.241 352.32 358.983C350.911 358.729 349.606 357.969 348.521 356.985C346.325 354.993 344.891 352.185 343.928 349.202C342.967 346.199 342.532 342.94 342.504 339.612C342.533 336.286 342.968 333.027 343.929 330.025C344.892 327.043 346.326 324.235 348.521 322.244C349.605 321.26 350.909 320.5 352.32 320.246C353.726 319.988 355.152 320.254 356.333 320.835C357.516 321.417 358.52 322.232 359.295 323.155C360.108 324.049 360.719 325.033 361.262 325.984C362.304 327.916 362.932 329.805 363.34 331.485C363.58 332.316 363.68 333.119 363.837 333.841C363.933 334.575 364.029 335.245 364.095 335.848C364.191 337.06 364.242 338.001 364.224 338.641C364.221 338.933 364.219 339.171 364.217 339.367C364.213 339.531 364.206 339.615 364.197 339.615Z" fill="#1A2E35"/>
<path d="M353.311 341.847L352.569 341.9L352.665 343.22L351.638 343.293L351.541 341.973L349.089 342.147L349.018 341.167L350.875 337.024L351.982 336.946L350.265 340.872L351.487 340.784L351.403 339.606L352.398 339.536L352.483 340.713L353.225 340.661L353.311 341.847Z" fill="#1A2E35"/>
<path d="M355.301 341.127L354.861 341.828L354.95 343.058L353.936 343.129L353.454 336.462L354.468 336.39L354.741 340.164L356.084 338.118L357.293 338.031L355.985 340.185L357.774 342.857L356.545 342.944L355.301 341.127Z" fill="#1A2E35"/>
<path d="M242.963 74.3157C248.016 70.394 248.34 62.3918 244.894 57.0254C241.449 51.659 235.205 48.6316 228.943 47.2375C219.251 45.0808 208.143 46.6378 201.131 53.6095C194.12 60.5813 193.253 73.5831 200.934 79.8233C196.503 80.1664 191.824 80.5951 188.216 83.168C184.609 85.741 182.753 91.2568 185.585 94.6499C188.812 98.5161 195.011 97.0663 199.742 95.2795C196.632 97.2291 196.146 101.936 198.183 104.974C200.222 108.01 204.103 109.442 207.784 109.398C211.464 109.356 215.003 108.049 218.378 106.596" fill="#1A2E35"/>
<path d="M227.493 75.812C229.321 73.6429 231.193 71.443 233.6 69.9273C236.007 68.4126 239.075 67.6624 241.752 68.6351C243.012 69.0926 244.214 70.0427 244.444 71.3523C244.675 72.662 243.465 74.1633 242.163 73.8397L241.842 74.0324C238.474 76.1273 235.064 78.1551 231.615 80.116C230.747 80.6096 229.848 81.1093 228.855 81.2412C227.863 81.3731 226.743 81.0537 226.208 80.2139C225.327 78.8259 226.433 77.0711 227.493 75.812Z" fill="#FF735D"/>
<path d="M220.356 84.4499C232.111 74.2066 246.383 69.5378 261.87 71.8119C270.606 73.0958 273.913 75.4802 279.908 78.184C285.903 80.8878 291.009 85.1506 293.874 91.0271C297.278 98.0071 299.844 105.62 299.418 113.36C298.978 121.311 298.533 129.314 296.632 137.052C294.731 144.788 291.268 152.326 285.551 157.924L264.855 158.094C253.681 156.65 234.573 167.582 224.167 163.298C213.761 159.016 207.003 139.803 205.594 128.266C203.715 112.868 208.601 94.6933 220.356 84.4499Z" fill="#1A2E35"/>
<path d="M259.033 193.49C260.065 186.473 261.289 177.665 261.285 177.698C261.285 177.698 277.988 178.593 285.994 158.503C289.975 148.512 293.258 131.415 295.486 117.342C297.492 104.673 289.491 85.6656 273.735 83.0298L266.862 81.0762L238.28 87.2494C234.374 86.8094 230.776 89.404 230.001 93.2237L213.712 187.475L226.157 215.918L256.968 204.093L259.033 193.49Z" fill="#C17560"/>
<path d="M255.269 148.465C255.598 147.391 256.375 146.52 257.273 145.983C259.067 144.906 261.384 145.152 262.873 146.577C264.364 148.002 264.934 150.517 264.251 152.657C263.094 153.788 261.505 154.42 259.883 154.295C259.631 154.275 259.38 154.243 259.13 154.196C257.924 153.967 256.758 153.359 255.98 152.323C255.202 151.286 254.863 149.79 255.269 148.465Z" fill="#7C4236"/>
<path d="M286.323 132.963C286.056 134.385 284.622 135.334 283.119 135.086C281.619 134.839 280.614 133.489 280.88 132.067C281.146 130.646 282.581 129.695 284.08 129.942C285.584 130.189 286.589 131.542 286.323 132.963Z" fill="#1A2E35"/>
<path d="M289.509 123.581C289.097 123.856 287.39 121.91 284.488 121.278C281.598 120.607 279.137 121.617 278.902 121.196C278.781 121.006 279.264 120.453 280.339 119.988C281.401 119.523 283.103 119.218 284.908 119.622C286.712 120.03 288.085 121.025 288.808 121.89C289.547 122.765 289.709 123.462 289.509 123.581Z" fill="#1A2E35"/>
<path d="M266.905 143.248C266.928 143.082 268.8 143.17 271.804 143.443C272.562 143.529 273.297 143.537 273.534 143.064C273.827 142.573 273.695 141.714 273.526 140.781C273.228 138.852 272.917 136.829 272.588 134.711C271.331 126.085 270.595 119.058 270.945 119.012C271.297 118.964 272.602 125.917 273.86 134.543C274.152 136.666 274.433 138.69 274.698 140.625C274.792 141.522 275.061 142.574 274.436 143.591C274.114 144.096 273.482 144.373 272.978 144.396C272.471 144.435 272.053 144.351 271.681 144.293C268.706 143.802 266.879 143.414 266.905 143.248Z" fill="#1A2E35"/>
<path d="M261.284 177.697C261.284 177.697 246.942 175.489 234.803 164.064C234.803 164.064 239.066 180.149 260.54 182.829L261.284 177.697Z" fill="#7C4236"/>
<path d="M257.923 143.358C258.4 143.434 257.707 146.555 259.906 149.362C262.097 152.176 265.532 152.563 265.46 153.005C265.46 153.21 264.577 153.446 263.152 153.173C261.751 152.915 259.821 152.025 258.476 150.309C257.135 148.589 256.835 146.622 257.015 145.319C257.187 143.988 257.712 143.292 257.923 143.358Z" fill="#1A2E35"/>
<path d="M290.205 117.735C289.561 118.329 287.444 117.371 284.801 117.014C282.17 116.573 279.856 116.86 279.428 116.103C279.243 115.738 279.679 115.117 280.737 114.609C281.781 114.102 283.459 113.787 285.273 114.06C287.084 114.337 288.586 115.131 289.421 115.923C290.272 116.721 290.493 117.441 290.205 117.735Z" fill="#1A2E35"/>
<path d="M253.406 126.634C253.093 128.047 254.04 129.473 255.523 129.824C257.002 130.176 258.458 129.318 258.771 127.907C259.084 126.495 258.136 125.066 256.658 124.716C255.175 124.364 253.719 125.223 253.406 126.634Z" fill="#1A2E35"/>
<path d="M250.081 115.975C250.353 116.387 252.689 115.253 255.611 115.789C258.537 116.285 260.406 118.165 260.789 117.867C260.974 117.739 260.747 117.042 259.939 116.2C259.144 115.362 257.696 114.425 255.874 114.102C254.051 113.782 252.397 114.169 251.392 114.688C250.366 115.208 249.944 115.787 250.081 115.975Z" fill="#1A2E35"/>
<path d="M253.391 106.971C253.845 107.732 256.227 107.46 258.943 107.92C261.674 108.295 263.87 109.269 264.525 108.678C264.818 108.385 264.578 107.661 263.69 106.856C262.816 106.057 261.256 105.25 259.384 104.961C257.511 104.676 255.787 104.978 254.72 105.482C253.636 105.983 253.196 106.604 253.391 106.971Z" fill="#1A2E35"/>
<path d="M227.755 129.135C228.099 127.583 227.109 123.528 225.617 122.949C221.632 121.404 214.118 120.095 211.72 130.466C208.443 144.643 223.486 144.979 223.605 144.579C223.698 144.265 226.567 134.493 227.755 129.135Z" fill="#C17560"/>
<path d="M220.855 138.504C220.803 138.444 220.565 138.62 220.101 138.716C219.646 138.809 218.909 138.778 218.228 138.33C216.842 137.438 216.119 134.771 216.642 132.201C216.903 130.901 217.459 129.735 218.156 128.822C218.833 127.883 219.677 127.312 220.47 127.352C221.266 127.35 221.701 127.924 221.784 128.362C221.885 128.802 221.728 129.065 221.799 129.106C221.83 129.151 222.16 128.938 222.181 128.327C222.187 128.031 222.096 127.66 221.822 127.31C221.543 126.956 221.071 126.7 220.527 126.636C219.406 126.462 218.181 127.242 217.415 128.244C216.589 129.237 215.932 130.542 215.638 132C215.069 134.878 215.927 137.885 217.859 138.948C218.805 139.436 219.715 139.326 220.225 139.09C220.75 138.841 220.898 138.541 220.855 138.504Z" fill="#7C4236"/>
<path d="M225.02 122.894L228.064 127.27C246.434 114.824 283.712 82.2346 281.608 84.1955C281.608 84.1955 271.479 77.9883 259.354 78.0491C247.228 78.1089 223.882 80.2964 221.927 94.1339C219.972 107.972 225.02 122.894 225.02 122.894Z" fill="#1A2E35"/>
<path d="M204.542 116.293C204.519 116.281 204.643 116.009 204.902 115.5C205.164 114.993 205.603 114.269 206.264 113.404C207.584 111.683 209.932 109.445 213.429 107.657C216.889 105.799 221.463 104.57 226.56 103.851C231.655 103.081 237.308 102.762 243.038 101.362C248.791 100.052 254.063 98.0132 258.644 95.7731C263.215 93.5021 267.094 91.0044 270.18 88.6921C273.268 86.3768 275.582 84.2716 277.152 82.792C277.878 82.083 278.468 81.5081 278.932 81.0547C279.343 80.66 279.567 80.4601 279.586 80.4776C279.606 80.4952 279.419 80.728 279.042 81.1567C278.661 81.5792 278.117 82.2211 277.359 82.996C275.846 84.5457 273.573 86.722 270.504 89.1084C267.436 91.4917 263.553 94.0585 258.953 96.3862C254.347 98.6809 249.025 100.762 243.21 102.085C237.406 103.502 231.716 103.801 226.658 104.529C221.589 105.208 217.098 106.363 213.67 108.125C210.21 109.82 207.86 111.947 206.492 113.584C205.126 115.241 204.612 116.333 204.542 116.293Z" fill="#375A64"/>
<path d="M208.373 119.236C208.373 119.236 208.423 118.039 209.456 116.198C210.454 114.366 212.605 112.007 216.013 110.343C219.404 108.604 223.943 107.929 228.857 107.633C233.787 107.371 239.169 106.886 244.634 105.373C250.088 103.877 255.105 101.805 259.362 99.3866C263.637 96.9939 267.201 94.3674 270.011 91.9634C272.849 89.5801 274.858 87.3472 276.28 85.8428C276.914 85.1102 277.429 84.5125 277.839 84.0375C278.203 83.6295 278.404 83.4223 278.425 83.4378C278.446 83.4532 278.284 83.6913 277.959 84.1302C277.576 84.63 277.094 85.2585 276.503 86.0313C275.141 87.5996 273.179 89.9036 270.363 92.3581C267.573 94.8332 264.006 97.5318 259.704 99.9821C255.419 102.459 250.351 104.578 244.831 106.091C239.31 107.623 233.812 108.095 228.902 108.316C224.002 108.575 219.565 109.188 216.245 110.816C212.901 112.376 210.758 114.604 209.709 116.344C208.624 118.092 208.469 119.269 208.373 119.236Z" fill="#375A64"/>
<path d="M168.406 249.68C168.987 250.793 168.987 264.52 171.608 279.922C174.23 295.324 187.562 326.763 187.562 326.763L184.807 348.104L300.623 361.209L286.685 324.264L288.214 289.469C288.214 289.469 297.077 279.738 293.332 253.762C289.587 227.786 284.166 205.484 284.166 205.484L274.853 201.548L262.958 197.178L218.516 183.391L194.184 180.537L170.86 228.158L168.406 249.68Z" fill="#C17560"/>
<path d="M175.795 296.463C175.795 296.463 184.321 290.486 204.81 290.045C225.299 289.603 285.661 299.665 285.661 299.665L287.816 291.799C287.816 291.799 302.429 269.753 291.783 244.328C280.434 217.22 284.315 204.873 284.315 204.873L274.854 201.547C274.854 201.547 265.371 220.057 257.289 224.542C248.172 229.602 231.397 229.365 216.613 210.168C206.213 196.664 206.037 181.492 206.037 181.492L194.915 180.537C194.915 180.537 192.338 209.065 186.77 222.305C181.203 235.543 167.126 263.237 167.126 263.237C167.126 263.237 173.06 292.73 175.795 296.463Z" fill="#69B99D"/>
<path d="M183.593 348.146C182.845 350.002 170.86 381.915 169.361 407.89C167.862 433.866 167.488 466.337 173.106 487.581H239.399C239.399 487.581 244.922 440.625 246.795 438.399C248.668 436.172 250.54 435.469 251.29 443.985C252.039 452.499 249.886 487.581 249.886 487.581H314.321C314.321 487.581 316.179 429.189 314.68 414.828C313.732 405.732 310.678 390.781 308.567 381.045C307.247 374.957 305.438 368.988 303.146 363.191L295.635 344.196L183.593 348.146Z" fill="#1A2E35"/>
<path d="M300.623 356.811C300.623 356.821 300.517 356.831 300.309 356.841C300.071 356.85 299.768 356.861 299.387 356.875C298.54 356.894 297.354 356.92 295.845 356.953C292.769 356.993 288.318 357.117 282.822 357.309C271.828 357.683 256.659 358.603 239.912 359.764C223.158 360.925 207.973 361.785 196.969 362.063C191.467 362.206 187.014 362.273 183.937 362.249C182.428 362.239 181.241 362.231 180.394 362.225C180.013 362.218 179.709 362.211 179.472 362.206C179.264 362.198 179.158 362.19 179.158 362.181C179.158 362.172 179.264 362.161 179.472 362.151C179.709 362.143 180.013 362.131 180.392 362.117C181.24 362.1 182.427 362.073 183.935 362.04C187.01 362 191.46 361.875 196.957 361.684C207.951 361.309 223.122 360.39 239.874 359.229C256.622 358.068 271.805 357.207 282.81 356.93C288.311 356.787 292.765 356.72 295.843 356.743C297.353 356.754 298.54 356.761 299.387 356.767C299.768 356.775 300.071 356.782 300.309 356.787C300.517 356.794 300.623 356.802 300.623 356.811Z" fill="#375A64"/>
<path d="M190.545 362.181C190.554 362.183 190.538 362.293 190.498 362.506C190.45 362.746 190.388 363.056 190.31 363.445C190.125 364.305 189.865 365.511 189.534 367.048C189.182 368.609 188.765 370.52 188.345 372.753C187.918 374.984 187.372 377.514 186.917 380.337C186.674 381.747 186.42 383.222 186.155 384.759C185.893 386.297 185.684 387.907 185.432 389.568C184.905 392.888 184.506 396.458 184.049 400.209C183.244 407.722 182.594 416.008 182.323 424.724C182.093 433.444 182.269 441.755 182.663 449.301C182.919 453.071 183.121 456.657 183.482 459.998C183.65 461.671 183.773 463.29 183.96 464.838C184.15 466.386 184.333 467.872 184.508 469.291C184.822 472.133 185.26 474.682 185.587 476.929C185.903 479.18 186.241 481.105 186.531 482.679C186.8 484.227 187.011 485.442 187.161 486.308C187.223 486.701 187.272 487.013 187.31 487.255C187.342 487.468 187.353 487.578 187.344 487.581C187.334 487.583 187.305 487.475 187.256 487.265C187.204 487.026 187.138 486.717 187.054 486.329C186.88 485.467 186.635 484.257 186.323 482.716C186.002 481.148 185.633 479.225 185.288 476.977C184.932 474.731 184.467 472.182 184.128 469.34C183.942 467.92 183.747 466.433 183.545 464.885C183.346 463.335 183.213 461.715 183.035 460.041C182.654 456.696 182.434 453.105 182.165 449.329C181.742 441.771 181.551 433.445 181.781 424.709C182.052 415.977 182.719 407.676 183.553 400.154C184.024 396.398 184.441 392.826 184.988 389.504C185.25 387.84 185.469 386.23 185.743 384.692C186.02 383.155 186.286 381.68 186.541 380.27C187.019 377.448 187.592 374.92 188.049 372.693C188.497 370.464 188.944 368.556 189.328 367.002C189.701 365.474 189.995 364.275 190.204 363.421C190.304 363.036 190.383 362.73 190.445 362.493C190.502 362.284 190.535 362.179 190.545 362.181Z" fill="white"/>
<path d="M184.807 362.83C184.816 362.833 184.801 362.942 184.761 363.153C184.713 363.393 184.652 363.701 184.575 364.089C184.392 364.944 184.134 366.144 183.806 367.672C183.458 369.225 183.043 371.127 182.633 373.35C182.216 375.571 181.674 378.087 181.237 380.898C181.001 382.3 180.754 383.77 180.497 385.299C180.24 386.83 180.046 388.433 179.803 390.087C179.297 393.393 178.923 396.945 178.496 400.68C177.749 408.158 177.176 416.406 176.989 425.078C176.845 433.754 177.101 442.019 177.561 449.522C177.845 453.27 178.082 456.835 178.462 460.157C178.641 461.819 178.774 463.429 178.972 464.967C179.171 466.506 179.36 467.983 179.542 469.394C179.872 472.219 180.317 474.754 180.65 476.988C180.974 479.225 181.316 481.141 181.605 482.705C181.873 484.245 182.084 485.454 182.235 486.314C182.297 486.705 182.347 487.015 182.386 487.256C182.416 487.469 182.427 487.579 182.418 487.581C182.41 487.583 182.379 487.477 182.331 487.267C182.279 487.028 182.212 486.721 182.128 486.336C181.953 485.479 181.709 484.275 181.397 482.743C181.076 481.183 180.704 479.271 180.351 477.036C179.99 474.805 179.517 472.271 179.163 469.445C178.97 468.034 178.768 466.556 178.557 465.017C178.347 463.477 178.204 461.867 178.016 460.203C177.615 456.877 177.36 453.308 177.063 449.554C176.575 442.041 176.303 433.76 176.447 425.068C176.636 416.38 177.225 408.117 178 400.628C178.441 396.889 178.832 393.332 179.358 390.024C179.611 388.369 179.816 386.765 180.085 385.234C180.354 383.704 180.613 382.235 180.859 380.832C181.322 378.022 181.891 375.508 182.337 373.29C182.776 371.071 183.221 369.174 183.6 367.627C183.971 366.107 184.262 364.914 184.469 364.064C184.568 363.682 184.647 363.377 184.707 363.141C184.764 362.934 184.797 362.828 184.807 362.83Z" fill="white"/>
<path d="M295.667 345.524C295.633 345.538 295.352 344.961 294.87 343.903C294.365 342.762 293.691 341.242 292.875 339.396C291.208 335.576 288.934 330.274 286.436 324.368L286.417 324.323L286.415 324.275C286.405 324.027 286.393 323.76 286.382 323.491C286.108 316.914 285.89 310.959 285.76 306.648C285.708 304.557 285.665 302.833 285.633 301.541C285.63 300.99 285.628 300.532 285.626 300.151C285.63 299.833 285.642 299.665 285.66 299.665C285.679 299.664 285.704 299.83 285.735 300.147C285.765 300.526 285.801 300.983 285.843 301.533C285.919 302.823 286.02 304.543 286.143 306.632C286.371 310.939 286.649 316.892 286.924 323.468C286.934 323.737 286.946 324.005 286.956 324.253L286.935 324.16C289.428 330.069 291.645 335.395 293.222 339.252C293.975 341.124 294.595 342.667 295.061 343.824C295.484 344.906 295.701 345.51 295.667 345.524Z" fill="#7C4236"/>
<path d="M283.687 250.335C283.657 250.48 279.284 249.749 273.92 248.702C268.552 247.655 264.227 246.689 264.256 246.543C264.285 246.397 268.657 247.129 274.024 248.176C279.389 249.223 283.716 250.189 283.687 250.335Z" fill="white"/>
<path d="M136.964 434.761C136.964 445.56 128.127 454.317 117.227 454.317C106.325 454.317 97.4884 445.56 97.4884 434.761C97.4884 423.96 106.325 415.204 117.227 415.204C128.127 415.204 136.964 423.96 136.964 434.761Z" fill="#FF735D"/>
<mask id="mask7_1201_511" style="mask-type:luminance" maskUnits="userSpaceOnUse" x="97" y="415" width="40" height="40">
<path d="M97.4884 415.205H136.964V454.316H97.4884V415.205Z" fill="white"/>
</mask>
<g mask="url(#mask7_1201_511)">
<g opacity="0.300003">
<path d="M136.964 434.761C136.964 445.561 128.127 454.317 117.227 454.317C106.325 454.317 97.4885 445.561 97.4885 434.761C97.4885 423.96 106.325 415.205 117.227 415.205C128.127 415.205 136.964 423.96 136.964 434.761Z" fill="black"/>
</g>
</g>
<path d="M143.25 434.761C143.25 445.56 134.413 454.317 123.513 454.317C112.612 454.317 103.775 445.56 103.775 434.761C103.775 423.96 112.612 415.204 123.513 415.204C134.413 415.204 143.25 423.96 143.25 434.761Z" fill="#FF735D"/>
<path d="M112.456 398.401C112.456 399.136 112.438 411.909 110.214 419.07C107.99 426.231 106.878 433.576 107.805 436.331C108.731 439.085 119.109 449.184 121.519 450.102C123.929 451.02 145.056 449.184 145.056 449.184L152.283 424.762C152.283 424.762 143.943 413.01 140.423 406.767C136.902 400.524 133.718 393.256 134.105 388.903C134.492 384.549 112.456 398.401 112.456 398.401Z" fill="#C17560"/>
<path d="M160.466 436.632C160.466 447.433 151.629 456.188 140.728 456.188C129.827 456.188 120.99 447.433 120.99 436.632C120.99 425.832 129.827 417.076 140.728 417.076C151.629 417.076 160.466 425.832 160.466 436.632Z" fill="#FF735D"/>
<path d="M183.967 180.774C178.127 181.515 172.475 183.439 167.54 186.62C159.499 191.804 149.781 201.76 146.303 220.406C139.98 254.31 136.632 284.16 132.913 291.899C129.194 299.638 121.383 314.379 120.639 329.857C119.896 345.335 112.457 398.401 112.457 398.401H131.798C131.798 398.401 149.651 343.491 156.346 325.803C163.041 308.114 161.3 307.68 165.763 291.097C170.227 274.513 179.518 242.62 179.518 242.62L190.668 208.939L194.184 180.537L183.967 180.774Z" fill="#C17560"/>
<path d="M180.53 209.7C180.596 209.676 181.041 210.628 181.633 212.219C182.22 213.81 182.938 216.052 183.466 218.593C183.992 221.136 184.224 223.477 184.316 225.169C184.405 226.863 184.374 227.912 184.305 227.915C184.224 227.919 184.12 226.877 183.934 225.201C183.745 223.526 183.455 221.216 182.936 218.702C182.414 216.189 181.762 213.953 181.27 212.339C180.774 210.726 180.456 209.728 180.53 209.7Z" fill="#7C4236"/>
<mask id="mask8_1201_511" style="mask-type:luminance" maskUnits="userSpaceOnUse" x="120" y="417" width="41" height="40">
<path d="M120.99 417.076H160.466V456.188H120.99V417.076Z" fill="white"/>
</mask>
<g mask="url(#mask8_1201_511)">
<g opacity="0.300003">
<path d="M160.466 436.632C160.466 447.433 151.629 456.188 140.728 456.188C129.827 456.188 120.99 447.433 120.99 436.632C120.99 425.832 129.827 417.076 140.728 417.076C151.629 417.076 160.466 425.832 160.466 436.632Z" fill="black"/>
</g>
</g>
<path d="M167.412 436.632C167.412 447.433 158.575 456.188 147.673 456.188C136.773 456.188 127.936 447.433 127.936 436.632C127.936 425.832 136.773 417.076 147.673 417.076C158.575 417.076 167.412 425.832 167.412 436.632Z" fill="#FF735D"/>
<path d="M148.345 438.653L147.432 438.717L147.538 440.172L146.272 440.261L146.167 438.808L143.146 439.022L143.069 437.943L145.394 433.361L146.755 433.264L144.607 437.604L146.112 437.498L146.019 436.202L147.244 436.114L147.338 437.41L148.251 437.345L148.345 438.653Z" fill="#1A2E35"/>
<path d="M150.796 437.842L150.248 438.617L150.346 439.972L149.097 440.06L148.566 432.718L149.815 432.629L150.115 436.786L151.788 434.519L153.277 434.414L151.646 436.796L153.823 439.724L152.309 439.833L150.796 437.842Z" fill="#1A2E35"/>
<path d="M164.205 436.632C164.115 436.64 164.226 435.171 163.585 432.659C163.287 431.4 162.682 429.916 161.738 428.345C160.786 426.78 159.418 425.148 157.559 423.764C155.707 422.394 153.374 421.229 150.684 420.762C148.011 420.312 144.997 420.398 142.128 421.482C140.684 421.979 139.292 422.732 138.012 423.681C137.351 424.131 136.774 424.695 136.169 425.237C135.621 425.837 135.046 426.425 134.575 427.107C132.574 429.745 131.447 433.136 131.414 436.63C131.446 440.125 132.573 443.517 134.574 446.156C135.045 446.837 135.62 447.425 136.167 448.026C136.773 448.568 137.35 449.132 138.011 449.582C139.291 450.532 140.684 451.284 142.128 451.782C144.997 452.866 148.012 452.952 150.685 452.501C153.375 452.033 155.708 450.87 157.56 449.499C159.419 448.116 160.786 446.483 161.739 444.918C162.682 443.347 163.287 441.862 163.586 440.605C164.225 438.093 164.115 436.624 164.205 436.632C164.214 436.632 164.219 436.722 164.219 436.898C164.215 437.105 164.211 437.362 164.206 437.679C164.206 438.024 164.187 438.449 164.103 438.946C164.035 439.445 163.971 440.024 163.79 440.656C163.518 441.937 162.936 443.456 161.999 445.072C161.055 446.68 159.679 448.365 157.793 449.801C155.913 451.224 153.528 452.438 150.767 452.938C148.025 453.421 144.921 453.35 141.958 452.247C140.467 451.74 139.027 450.969 137.704 449.994C137.02 449.531 136.421 448.953 135.796 448.393C135.229 447.776 134.636 447.17 134.147 446.467C132.075 443.747 130.903 440.24 130.873 436.63C130.904 433.02 132.076 429.514 134.148 426.795C134.637 426.093 135.23 425.487 135.797 424.87C136.422 424.311 137.021 423.732 137.705 423.269C139.027 422.294 140.467 421.524 141.958 421.017C144.921 419.914 148.023 419.842 150.766 420.325C153.527 420.825 155.912 422.04 157.792 423.462C159.678 424.898 161.054 426.583 161.998 428.192C162.935 429.806 163.518 431.326 163.79 432.607C163.971 433.239 164.035 433.819 164.103 434.318C164.187 434.814 164.206 435.24 164.206 435.585C164.211 435.901 164.215 436.159 164.219 436.366C164.219 436.542 164.214 436.632 164.205 436.632Z" fill="#1A2E35"/>
</g>
</svg>
